<svg width="450" height="450" viewBox="0 0 450 450" fill="none" xmlns="http://www.w3.org/2000/svg">
<path d="M33.6964 108.911C18 124.594 18 149.853 18 200.357V253.929C18 304.433 18.0134 329.679 33.6964 345.375C49.3795 361.071 74.6384 361.071 125.143 361.071H151.929C166.545 361.071 179.045 361.07 189.811 360.689C163.556 340.981 150.429 330.162 150.429 303.643L217.393 236.679L231.054 223.018C246.308 207.768 255.617 187.573 257.304 166.069C257.93 160.858 258.183 155.811 258.071 150.97C257.428 142.534 256.372 135.351 254.639 129.154C251.788 120.164 247.192 112.51 240.916 106.644C225.068 93.2143 199.874 93.2143 151.929 93.2143H125.143C74.6384 93.2143 49.3929 93.2277 33.6964 108.911Z" fill="#15A0B9"/>
<path d="M259.071 253.929C259.071 304.433 259.071 329.692 243.375 345.375C232.221 356.519 216.246 359.751 189.811 360.689H392.786C419.571 340.599 431.679 330.429 431.679 303.643L404.893 276.857H389.545C360 276.857 330.871 269.973 304.446 256.768C290.005 249.551 274.755 244.222 259.071 240.873V253.929Z" fill="#1A764B"/>
<path d="M304.446 256.768C330.871 269.973 360 276.857 389.545 276.857H404.893L351.067 223.031C335.807 207.782 326.493 187.585 324.804 166.078C323.114 144.571 329.16 123.168 341.853 105.723L351.321 92.7054V89.3572H230.786V92.7054L240.254 105.723C240.477 106.029 240.697 106.336 240.916 106.644C241.761 107.361 242.58 108.116 243.375 108.911C248.773 114.314 252.315 120.848 254.639 129.154C256.734 135.764 257.887 143.095 258.071 150.97C259.069 164.076 259.071 180.206 259.071 200.357V240.873C274.755 244.222 290.005 249.551 304.446 256.768Z" fill="#BEE8E1"/>
<path d="M243.375 345.375C259.071 329.692 259.071 304.433 259.071 253.929V240.873C246.058 238.094 232.746 236.679 219.348 236.679H217.393L150.429 303.643C150.429 330.162 163.556 340.981 189.811 360.689C216.246 359.751 232.221 356.519 243.375 345.375Z" fill="#178A81"/>
<path d="M217.393 236.679H219.348C232.746 236.679 246.058 238.094 259.071 240.873V200.357C259.071 180.206 259.069 164.076 258.071 150.97C258.183 155.811 257.93 160.858 257.304 166.069C255.617 187.573 246.308 207.768 231.054 223.018L217.393 236.679Z" fill="#6AC4CD"/>
</svg>
