<svg width="450" height="450" viewBox="0 0 450 450" fill="none" xmlns="http://www.w3.org/2000/svg">
<rect width="450" height="450" rx="20" fill="#D7D9D8"/>
<path d="M197.387 49.597C160.454 57.4636 129.521 76.9303 107.787 106.13L99.9207 116.664L105.387 121.597C108.321 124.264 110.721 127.33 110.721 128.13C110.721 131.33 114.987 138.93 116.721 138.93C117.787 138.93 119.254 141.197 120.054 143.864C120.987 146.664 122.187 149.464 122.854 150.264C124.721 152.264 124.187 153.597 121.121 154.797C118.321 155.864 117.787 155.33 115.387 147.73C113.654 142.397 111.921 139.464 110.321 139.197C106.454 138.397 106.321 142.397 109.787 149.997L113.121 157.33L110.054 158.664C107.121 159.997 106.987 159.73 106.054 154.264C105.654 151.064 104.187 147.064 102.854 145.33C100.721 142.797 100.054 142.664 98.1874 144.13C95.1207 146.664 95.5207 148.664 100.587 155.33C104.987 161.064 104.987 161.33 102.587 163.464C99.2541 166.264 99.1207 166.264 98.1874 162.13C96.5874 156.264 93.2541 152.13 90.1874 152.53C85.1207 153.197 86.0541 158.13 92.0541 163.33L97.5207 167.997L94.5874 172.797L91.7874 177.597L88.8541 171.997C86.9874 168.13 84.9874 166.13 83.1207 165.864C78.1874 165.197 79.2541 170.53 85.2541 176.13C90.3207 180.797 90.4541 181.197 90.0541 188.93L89.5207 196.93L90.9874 190.53C91.7874 187.064 92.9874 184.264 93.6541 184.264C94.1874 184.264 94.7207 184.93 94.7207 185.597C94.7207 187.464 100.854 193.597 102.721 193.597C105.787 193.597 103.787 187.864 99.1207 183.597C94.4541 179.33 94.3207 179.064 96.0541 175.064C97.7874 170.93 100.054 169.464 100.054 172.664C100.054 175.197 108.054 184.397 109.521 183.597C112.054 181.997 110.587 177.464 105.921 172.797C101.387 167.997 101.254 167.73 103.654 165.33C106.054 162.93 106.187 163.064 109.787 170.93C112.454 176.664 114.187 178.93 116.054 178.93C120.454 178.93 119.387 172.93 113.921 166.93C108.587 161.064 108.587 161.064 112.987 159.73C115.521 158.93 116.054 159.464 117.387 164.397C118.987 170.264 124.587 176.93 126.721 175.597C128.854 174.264 126.854 168.13 122.587 162.664L118.587 157.73L122.321 156.797C124.987 156.13 126.321 156.397 127.254 158.264C130.587 163.73 135.121 168.264 137.521 168.264C141.787 168.264 140.454 163.597 134.721 158.397L129.387 153.597L132.854 152.264C135.387 151.197 138.187 151.464 143.387 153.064C150.187 155.33 154.721 154.93 154.721 152.397C154.721 150.53 145.654 147.864 142.454 148.664C140.454 149.197 141.254 147.73 145.787 143.197C152.587 136.264 156.987 127.73 154.587 126.13C152.587 124.93 148.854 129.997 146.587 136.664C145.654 139.464 143.387 143.064 141.521 144.53L138.054 147.197L137.654 139.33C137.121 130.13 135.387 127.597 133.387 133.064C131.921 136.797 132.187 142.53 134.054 147.064C134.587 148.397 133.654 149.597 131.387 150.664C127.521 152.397 127.521 152.264 126.054 143.997C125.654 141.33 125.921 138.797 126.587 138.397C127.254 137.864 129.521 134.13 131.654 130.13C136.454 120.53 142.454 116.264 150.987 116.264C156.321 116.264 158.187 116.93 162.321 120.797C169.121 126.797 172.321 128.264 178.587 128.264C182.321 128.264 184.987 127.197 188.054 124.797C190.321 122.797 192.321 121.464 192.587 121.73C192.854 121.997 192.454 125.464 191.654 129.33C190.187 135.997 189.787 136.664 183.787 139.73C177.521 142.93 174.587 147.464 176.721 150.797C178.321 153.464 181.121 152.264 185.654 147.064L190.054 141.864L189.654 153.064C189.254 165.064 190.587 169.597 194.587 169.597C198.587 169.597 198.854 166.264 195.387 156.397C190.854 143.73 190.987 141.597 195.921 146.797C198.321 149.33 201.121 150.93 203.121 150.93C210.587 150.93 208.587 144.93 199.387 139.464C193.921 136.264 193.387 135.597 193.387 130.797C193.387 127.997 193.787 125.597 194.454 125.597C194.987 125.597 196.721 127.864 198.321 130.797C201.254 135.997 208.454 140.53 211.654 139.33C217.254 137.197 210.454 127.597 200.587 123.997C196.587 122.53 196.054 121.864 196.721 119.064C197.921 114.13 206.454 104.664 210.987 103.064C213.254 102.264 216.721 101.597 218.587 101.73C222.054 101.73 222.054 101.73 219.121 102.93C212.321 105.597 218.987 109.597 225.787 107.064C231.654 104.797 230.054 107.864 223.121 112.264C209.521 120.53 207.654 122.93 214.587 122.93C217.521 122.93 220.054 121.197 225.254 115.464C228.987 111.464 232.054 107.33 232.054 106.53C232.054 105.597 232.454 105.597 233.254 106.397C233.921 107.064 234.054 113.73 233.787 121.33C232.854 137.33 230.854 141.597 219.121 150.664C210.587 157.464 205.387 167.597 205.387 177.464C205.387 186.397 203.121 196.264 200.187 200.13L197.787 203.197L196.854 195.864C195.787 186.53 193.521 181.33 190.854 181.864C187.254 182.664 188.321 192.53 192.587 198.93C196.054 204.13 196.054 204.664 193.921 206.264C191.921 207.73 190.987 207.597 187.921 205.33C185.654 203.597 183.387 202.93 181.521 203.597C177.654 204.797 178.054 206.264 182.721 209.864C186.587 212.664 186.721 212.797 184.187 215.464C177.521 222.797 176.721 225.597 176.054 243.064L175.254 259.997L169.654 268.397C166.587 272.93 164.054 277.464 164.054 278.53C164.054 279.464 165.654 283.997 167.521 288.664C169.921 294.264 170.987 299.73 171.121 305.73C171.387 313.464 170.854 315.33 167.121 321.33L162.854 328.13L173.121 332.13C190.454 338.797 203.654 340.93 226.054 340.797C248.454 340.797 259.121 338.93 277.787 331.997L289.521 327.597L288.721 322.664C287.654 316.93 287.521 317.064 293.254 319.064C296.454 320.13 297.921 320.13 299.387 318.93C302.321 316.53 300.454 314.93 294.587 314.93C287.921 314.93 287.521 311.73 294.054 309.064C299.787 306.664 300.587 302.53 295.121 303.197C291.787 303.597 291.521 303.33 291.254 297.33C290.987 293.197 289.254 287.864 286.187 282.13C283.521 277.33 281.787 272.797 282.187 272.13C283.254 270.264 286.721 270.664 286.721 272.664C286.721 275.33 295.921 285.597 298.321 285.597C301.787 285.597 299.121 278.797 293.921 273.864C289.387 269.597 289.387 269.33 291.654 267.464C294.854 265.064 294.987 265.064 297.921 269.464C304.187 278.664 314.987 283.464 312.587 275.997C311.254 271.464 309.787 269.997 303.121 266.797L296.987 263.864L300.054 261.33C302.987 258.93 303.121 258.93 307.521 262.797C312.587 267.33 321.254 270.264 323.254 268.264C325.521 265.997 318.854 260.53 311.921 258.93C308.321 257.997 305.387 257.064 305.387 256.664C305.387 254.797 309.654 252.13 311.654 252.797C312.987 253.197 317.521 253.864 321.787 254.264C328.187 254.93 329.521 254.664 330.321 252.93C331.521 249.464 328.187 248.13 319.787 248.664L312.321 249.064L315.387 245.064C320.987 237.464 324.987 224.264 321.521 224.264C319.521 224.264 317.654 227.33 314.854 235.997C311.121 247.73 310.587 247.997 308.187 240.797C306.854 236.797 305.121 234.13 303.654 233.864C299.787 233.064 299.521 237.33 303.254 244.664C306.054 250.397 306.321 251.864 304.854 253.33C303.387 254.797 302.854 254.53 302.187 251.33C300.987 246.797 297.787 241.597 296.054 241.597C293.787 241.597 294.587 246.13 297.921 251.597C300.987 256.664 301.121 257.064 298.987 259.33C296.854 261.73 296.721 261.597 295.387 256.13C293.787 249.73 290.721 247.464 290.721 252.797C290.721 254.53 291.387 257.73 292.187 259.864C293.254 262.93 293.121 263.864 291.254 265.197C287.787 267.73 287.121 267.33 287.787 262.93C288.187 260.53 287.787 258.93 286.854 258.93C286.054 258.93 285.387 259.73 285.254 260.53C285.121 261.464 284.987 263.73 284.987 265.464C284.587 269.73 281.387 270.797 281.387 266.664C281.387 260.53 285.387 249.997 290.854 241.464C297.654 231.064 299.254 225.73 298.054 217.73C297.254 212.264 295.921 210.397 285.521 200.264L273.787 188.93L272.054 178.93C269.787 165.064 266.854 159.864 259.387 156.397C254.587 154.13 253.387 152.93 253.387 150.13C253.387 148.264 252.721 145.597 252.054 144.13C250.187 140.797 251.387 140.93 256.454 144.53C259.121 146.53 262.587 147.464 266.587 147.464C271.921 147.597 272.721 147.197 272.721 144.93C272.721 142.664 271.521 142.13 263.654 141.464C252.054 140.53 249.921 138.53 257.921 136.264C264.587 134.397 268.721 130.664 267.654 127.597C266.187 123.864 259.921 125.73 253.121 131.864C249.654 135.197 249.654 135.197 248.187 132.53C246.187 128.664 246.054 128.93 252.721 126.397C258.587 124.13 263.254 119.597 261.921 117.33C260.454 115.064 256.054 116.397 250.321 120.797C246.987 123.33 243.921 125.064 243.521 124.664C241.654 122.797 242.987 120.13 246.187 118.93C251.387 116.93 257.387 112.264 257.387 110.264C257.387 105.464 247.654 107.864 243.521 113.864C241.121 117.197 240.721 116.93 239.654 112.13C238.587 107.73 240.187 106.264 248.187 104.264C261.921 100.797 273.787 108.93 278.587 125.197C281.654 135.597 284.721 138.93 290.854 138.93C293.521 138.93 295.654 137.464 298.854 133.197C304.721 125.597 306.587 124.264 310.987 124.264C315.921 124.264 321.387 129.597 321.387 134.397C321.387 138.397 315.121 146.797 314.054 143.997C313.787 143.064 312.987 140.13 312.187 137.597L310.987 132.93V137.597C310.854 140.13 311.387 143.464 311.921 144.93C312.721 147.064 311.921 148.264 307.254 151.197C301.387 154.797 298.454 160.53 300.987 163.064C303.121 165.197 306.854 162.797 310.721 156.664L314.454 150.797L317.387 154.93L320.321 158.93L316.321 163.597C311.654 168.797 309.921 173.33 311.787 175.197C313.921 177.33 318.321 174.13 320.854 168.264C323.521 162.264 323.654 162.13 327.787 165.064L330.721 167.064L326.721 170.397C324.587 172.264 322.721 174.664 322.721 175.73C322.721 176.797 322.187 177.597 321.387 177.597C320.721 177.597 320.054 179.33 320.054 181.597C320.054 185.73 320.854 186.264 324.721 184.797C326.454 184.13 330.987 177.33 331.387 174.93C331.387 174.53 332.054 173.197 332.854 171.864C334.187 169.597 334.321 169.597 337.387 171.997L340.587 174.53L336.454 179.73C330.587 187.33 328.854 190.93 330.587 192.664C332.854 194.93 338.187 190.397 340.854 183.73C343.654 177.064 344.187 176.664 346.587 179.464C347.787 180.93 347.254 182.664 344.054 187.73C339.921 194.264 338.987 199.464 341.521 200.93C343.921 202.53 348.054 197.464 348.854 191.997C349.387 189.197 350.187 186.53 350.721 186.264C352.854 184.93 356.054 192.397 356.187 199.197C356.321 209.864 357.654 212.93 361.387 212.93C364.321 212.93 364.721 212.264 365.121 207.33C365.654 200.797 363.121 195.197 356.321 187.73L351.654 182.397L360.054 179.73C368.721 176.93 371.387 174.264 367.387 172.664C364.454 171.597 356.321 174.397 352.587 177.73C349.921 180.264 349.787 180.264 347.254 177.464C344.987 174.93 344.987 174.664 346.987 173.464C352.587 170.397 360.721 163.197 361.121 161.197C362.454 154.53 350.854 159.864 345.787 168.264C343.121 172.93 342.187 173.064 337.787 169.73L334.587 167.064L339.654 163.73C346.987 158.93 348.721 157.33 350.454 153.997C352.987 149.33 352.454 146.93 348.721 146.93C344.721 146.93 340.854 150.93 336.587 159.197C334.854 162.797 332.854 165.597 332.321 165.597C331.121 165.464 325.387 160.797 325.387 159.73C325.387 159.33 327.654 157.864 330.587 156.397C335.654 153.73 338.054 150.53 336.587 148.13C336.187 147.464 335.254 147.197 334.587 147.597C333.921 148.13 333.387 147.73 333.387 147.064C333.387 146.264 334.187 145.597 335.121 145.597C336.187 145.597 338.321 144.13 340.054 142.264C342.587 139.464 342.987 138.13 342.187 133.33C339.387 116.13 339.387 116.664 343.921 112.53L348.054 108.797L344.321 103.464C339.254 96.797 321.254 79.4636 312.721 73.3303C297.521 62.3969 274.454 52.797 254.321 48.9303C239.654 46.1303 211.921 46.3969 197.387 49.597ZM238.587 115.997C239.521 119.064 239.387 120.53 237.921 121.73C236.321 123.064 236.054 122.264 236.054 116.93C236.054 109.864 236.854 109.597 238.587 115.997ZM239.654 132.397C237.254 136.397 236.187 137.197 235.654 135.73C234.721 133.33 235.521 130.397 238.454 125.864C240.187 123.197 240.721 123.064 241.654 124.797C242.454 126.264 241.921 128.664 239.654 132.397ZM246.987 133.864C247.254 134.797 247.254 138.797 246.987 142.664L246.454 149.864L243.387 146.93C240.454 144.264 240.454 143.997 242.587 138.264C244.721 132.13 246.054 130.93 246.987 133.864ZM241.254 147.33C242.987 149.33 248.454 153.064 253.387 155.597C261.521 159.73 268.054 165.464 268.054 168.397C268.054 169.064 265.521 169.597 262.587 169.597C254.054 169.597 246.721 172.397 241.254 177.597C234.054 184.397 233.387 191.197 237.654 209.597C237.921 211.064 236.987 211.464 234.454 211.33C232.321 211.197 230.721 211.73 230.721 212.397C230.721 213.197 232.721 213.597 235.121 213.33C238.987 212.93 239.387 212.53 238.987 208.93C237.121 188.797 237.254 186.264 239.921 182.13C243.254 176.664 252.321 172.397 261.387 171.997L268.721 171.597L270.187 178.93C270.987 182.93 272.054 187.597 272.587 189.33C273.521 191.997 272.854 192.664 267.654 194.93C264.321 196.397 258.587 197.864 254.854 197.997C251.121 198.264 247.654 198.93 247.121 199.597C245.121 201.597 263.521 199.33 269.387 196.664L275.254 194.13L278.187 197.464L281.121 200.93L277.787 210.264C273.654 221.464 269.387 227.997 259.787 237.064C251.387 245.197 241.921 250.93 236.987 250.93C232.321 250.93 219.121 246.397 207.254 240.797C197.654 236.264 190.587 229.464 186.987 221.33C185.521 217.73 186.054 213.597 188.054 213.597C188.587 213.597 192.721 210.13 197.254 205.73L205.254 197.997L212.321 199.064C216.187 199.73 219.787 199.73 220.454 199.064C221.121 198.397 218.454 197.597 214.721 197.33C210.987 196.93 207.387 196.13 206.721 195.464C205.654 194.397 207.387 172.397 208.721 171.197C208.987 170.93 212.054 171.597 215.521 172.797C222.987 175.33 222.721 175.33 222.721 173.73C222.721 173.064 219.787 171.73 216.054 170.797C212.187 169.864 209.387 168.397 209.387 167.33C209.387 163.864 215.787 155.597 221.921 150.93C225.387 148.397 229.521 144.264 230.987 141.73L233.921 137.197L235.921 140.264C237.121 141.997 239.521 145.197 241.254 147.33ZM329.787 148.264C328.454 149.33 326.054 151.864 324.454 153.997L321.654 157.597L318.987 153.33L316.187 149.064L320.987 146.13C324.854 143.864 326.321 143.597 328.854 144.797C331.921 146.13 331.921 146.397 329.787 148.264ZM291.254 208.397C296.187 214.13 295.787 217.33 290.054 218.397C284.587 219.33 281.254 222.53 284.454 223.73C285.654 224.13 287.787 223.864 289.254 222.93C292.587 221.197 292.721 221.997 289.921 226.264C288.721 228.13 286.854 229.597 285.654 229.597C282.721 229.597 276.054 236.264 276.054 239.197C276.054 240.53 276.854 241.597 277.921 241.597C280.187 241.597 288.054 235.197 288.054 233.33C288.054 232.664 289.121 230.53 290.587 228.797L293.121 225.597L293.654 228.93C294.187 231.33 292.854 234.664 289.121 240.397C282.454 250.664 279.921 257.73 279.787 266.93C279.654 273.064 280.587 275.997 284.587 283.464C288.587 291.064 289.387 293.997 289.387 300.53C289.387 304.93 288.854 308.264 288.054 308.264C282.187 308.264 266.054 295.464 259.521 285.597C256.454 280.93 256.854 280.264 261.521 282.53C264.454 283.997 266.054 284.13 266.987 283.197C269.254 280.93 265.921 277.864 260.587 276.797C255.787 275.864 254.987 274.797 257.787 272.53C258.854 271.597 261.387 271.597 265.921 272.53C271.121 273.597 272.721 273.464 274.321 271.864C276.187 270.13 276.054 269.73 273.387 268.264C271.787 267.33 268.987 266.93 267.254 267.33C263.121 267.997 263.254 266.397 267.254 262.264C272.587 256.93 274.721 253.197 274.721 249.33C274.721 246.93 274.054 245.597 272.721 245.597C270.187 245.597 265.387 253.197 265.387 257.33C265.387 260.93 263.121 265.597 261.521 265.597C260.854 265.597 260.321 264.797 260.454 263.864C260.587 258.93 259.787 256.397 257.921 255.73C255.921 254.93 255.787 255.73 256.454 262.797C257.121 268.664 256.854 271.064 255.521 272.13C253.121 274.13 252.321 270.53 251.787 256.797L251.387 247.464L260.321 239.064C271.254 228.93 276.321 221.33 280.054 210.13C283.254 200.53 284.587 200.397 291.254 208.397ZM195.521 236.264C198.321 238.797 203.387 242.13 206.587 243.597L212.454 246.13L211.654 254.93C208.987 283.73 201.254 297.464 185.121 301.33C175.654 303.73 173.387 303.464 173.387 299.864C173.387 298.264 172.187 294.264 170.721 291.064C167.387 283.73 167.387 283.464 171.521 286.797C175.121 289.597 177.387 289.464 177.387 286.264C177.387 284.13 172.054 280.13 170.454 281.064C169.921 281.464 169.387 281.464 169.387 280.93C169.387 280.53 170.987 279.597 172.854 278.93C175.387 277.864 178.187 278.13 183.387 279.73C190.587 281.997 195.387 281.597 194.454 278.664C194.054 277.73 191.787 276.397 189.254 275.73C186.721 275.064 184.587 274.397 184.321 274.264C184.187 274.13 186.987 271.064 190.721 267.33C198.187 259.864 199.521 254.93 194.187 254.93C191.921 254.93 190.454 256.13 188.854 259.464C187.654 261.997 186.721 264.93 186.721 266.13C186.721 268.264 181.787 273.597 179.787 273.597C179.121 273.597 179.254 272.397 180.054 271.064C181.787 267.73 181.787 261.597 180.054 261.597C178.187 261.597 176.054 267.464 176.054 272.264C176.054 275.464 175.387 276.264 171.921 276.93C169.654 277.464 167.521 277.597 167.254 277.197C166.854 276.797 168.587 273.464 171.254 269.597C176.854 261.464 178.721 255.597 178.721 245.864V238.797L183.654 242.264C189.254 245.997 193.387 246.664 193.387 243.597C193.387 241.33 189.387 238.93 185.654 238.93C184.321 238.93 182.054 237.73 180.721 236.264C178.321 233.597 178.454 233.597 182.587 233.597C187.921 233.597 187.654 230.53 182.321 229.864C178.054 229.33 178.054 229.33 180.854 223.997L182.987 219.864L186.721 225.73C188.721 228.93 192.721 233.73 195.521 236.264Z" fill="#1A764B"/>
<path d="M260.987 213.33C258.054 216.53 258.721 221.597 262.321 223.33C267.654 225.73 271.254 219.864 268.587 213.064C267.521 210.264 263.654 210.397 260.987 213.33Z" fill="#1A764B"/>
<path d="M200.187 214.13C197.921 216.797 199.254 222.397 202.587 224.13C208.321 227.197 214.587 220.53 211.121 215.064C209.254 212.13 202.321 211.597 200.187 214.13Z" fill="#1A764B"/>
<path d="M227.787 226.53C226.054 227.464 223.387 228.13 221.787 228.264C217.121 228.264 218.187 229.997 225.387 233.464C232.454 236.93 238.187 236.664 245.921 232.664L249.787 230.664L243.921 227.997C236.721 224.797 231.787 224.264 227.787 226.53ZM242.721 230.93C243.787 231.064 242.587 231.864 240.054 232.797C237.521 233.73 234.854 234.397 234.054 234.13C233.387 233.997 231.121 233.464 229.121 233.064C220.187 231.064 228.454 229.864 242.721 230.93Z" fill="#1A764B"/>
<path d="M160.721 148.397C159.254 150.53 159.654 157.73 161.387 164.13C162.187 167.33 162.587 171.464 162.054 173.464C161.254 176.53 160.987 176.264 158.321 169.597C154.987 161.464 150.054 157.597 146.987 160.797C144.054 163.597 146.454 169.197 153.121 174.93C158.054 179.33 158.854 180.664 157.387 181.997C156.054 183.197 155.521 183.197 154.987 181.597C153.387 177.33 146.854 172.264 142.854 172.264C134.321 172.264 139.521 181.464 149.787 184.53C154.721 185.997 154.854 186.13 152.321 188.53C149.787 191.064 149.654 191.064 145.654 187.064C140.987 182.264 134.721 181.33 134.721 185.464C134.721 188.664 137.654 191.064 143.121 192.13C147.387 193.064 147.387 193.064 144.321 194.797C141.654 196.264 140.721 195.997 136.587 192.397C131.787 188.13 126.721 186.93 126.721 189.997C126.721 192.397 130.587 195.73 134.721 196.93L138.054 197.997L134.854 199.197C132.187 200.13 131.121 199.597 128.054 196.13C125.387 192.797 123.921 191.997 121.921 192.797C119.521 193.73 119.654 193.997 123.121 196.93C127.387 200.797 127.654 201.597 124.054 201.597C122.321 201.597 120.587 199.864 119.121 196.53C117.521 193.33 115.654 191.464 113.654 191.197C109.521 190.53 109.654 195.597 114.054 198.397C117.654 200.797 118.454 202.93 115.787 202.93C114.854 202.93 112.854 203.997 111.387 205.064C108.854 207.197 108.854 207.197 112.054 206.264C113.921 205.73 116.187 204.93 117.121 204.664C118.187 204.264 118.721 205.197 118.721 207.597C118.721 212.13 120.987 216.264 123.521 216.264C126.587 216.264 127.121 212.93 124.854 208.397C122.054 203.064 122.054 202.93 126.587 202.93C129.921 202.93 130.454 203.464 131.121 207.997C132.187 214.397 134.987 218.264 137.921 217.197C139.121 216.664 140.054 215.33 140.054 214.264C140.054 213.064 139.521 212.53 138.721 212.93C138.054 213.33 137.787 212.93 138.187 211.864C138.587 210.797 137.387 208.13 135.521 205.864L132.054 201.864L135.521 201.064C137.521 200.53 139.254 200.264 139.387 200.53C139.521 200.797 140.721 202.93 141.921 205.197C144.187 209.73 149.921 212.264 152.321 209.864C153.921 208.264 152.454 205.197 150.587 206.397C149.921 206.797 149.521 206.53 149.654 205.73C149.921 204.93 148.321 202.93 146.321 201.197L142.454 198.13L145.921 196.397C148.987 194.664 149.654 194.797 154.054 198.797C159.254 203.33 165.921 204.397 167.254 200.93C168.587 197.33 158.854 192.664 152.054 193.597C150.587 193.73 150.987 192.93 152.987 190.797C155.921 187.73 156.054 187.73 162.321 189.997C165.921 191.197 170.721 192.264 173.121 192.264C178.854 192.264 180.321 188.797 175.921 185.197C173.254 183.064 171.521 182.797 165.654 183.464C156.187 184.53 157.787 182.53 169.121 179.064C178.854 176.13 185.387 171.997 185.387 168.797C185.387 163.73 176.054 166.13 167.654 173.597L162.721 177.864L164.721 172.397C165.654 169.464 166.987 163.464 167.521 159.197C168.187 152.93 167.921 150.93 166.054 149.197C163.521 146.53 161.921 146.397 160.721 148.397Z" fill="#1A764B"/>
<path d="M272.054 153.864C272.054 157.864 275.387 162.797 282.721 169.464L288.721 174.797L282.054 174.53C276.187 174.264 275.387 174.53 275.387 176.93C275.387 179.33 276.321 179.597 284.321 179.597C291.387 179.597 293.787 180.13 295.654 182.13C297.921 184.53 297.921 184.664 295.521 183.73C292.187 182.53 282.721 185.33 282.721 187.464C282.721 190.93 289.521 191.064 297.521 187.73C298.987 187.064 300.321 187.864 301.921 190.13C303.121 191.997 304.054 193.73 304.054 193.864C304.054 194.13 301.254 194.264 297.787 194.264C292.321 194.264 291.387 194.664 291.387 196.93C291.387 198.93 292.321 199.597 295.387 199.73C297.654 199.73 300.854 199.33 302.587 198.664C304.987 197.864 306.187 198.13 307.521 199.864C309.921 203.197 309.787 204.264 306.854 204.264C305.521 204.264 302.987 205.33 301.387 206.664C298.721 208.797 298.721 209.197 300.587 210.797C302.321 212.264 303.521 212.13 308.054 209.864C313.254 207.33 313.654 207.33 316.321 209.597L319.121 211.864L315.654 212.797C311.654 213.73 309.121 217.597 310.587 220.13C312.187 222.664 316.454 220.797 319.121 216.397C320.721 213.73 322.187 212.664 323.921 213.197C325.921 213.73 326.321 214.797 325.654 219.864C325.121 225.197 325.254 225.864 327.521 225.33C329.387 225.064 330.187 223.597 330.454 219.997C330.854 215.197 330.987 215.197 335.787 215.864C339.521 216.264 340.187 216.13 338.721 215.064C337.654 214.264 335.654 213.597 334.454 213.597C331.387 213.597 331.387 212.797 334.854 208.13C337.654 204.13 337.787 200.13 335.121 199.33C333.254 198.664 329.387 205.597 329.387 209.597C329.387 212.397 328.321 212.797 324.854 211.464C322.987 210.797 323.387 209.864 326.721 206.13C330.987 201.197 331.654 198.397 329.121 196.797C327.254 195.597 321.387 202.13 321.387 205.597C321.387 209.197 319.387 209.864 316.854 207.197C314.854 204.93 314.987 204.53 318.721 201.864C321.254 199.864 322.721 197.73 322.721 195.597C322.721 190.264 319.387 191.597 314.987 198.797L312.321 203.197L310.054 199.73C307.787 196.397 307.787 196.264 311.787 192.53C315.787 188.797 318.587 182.264 316.987 180.664C315.121 178.93 311.787 181.997 309.254 187.73L306.454 193.864L303.787 189.597C301.254 185.33 301.254 185.197 303.921 182.397C307.521 178.53 309.787 172.13 308.187 170.53C306.054 168.397 302.987 171.864 301.254 177.997C299.921 183.33 299.787 183.33 297.254 180.664C294.854 178.397 294.854 177.464 296.187 171.33C297.787 164.53 297.254 160.264 294.854 160.264C292.987 160.264 291.521 165.464 291.921 170.797C292.187 175.33 292.187 175.464 289.521 173.064C288.054 171.73 286.454 169.064 286.054 167.064C284.721 161.064 277.654 150.93 274.721 150.93C272.854 150.93 272.054 151.864 272.054 153.864Z" fill="#1A764B"/>
<path d="M88.9874 205.73C83.9207 209.864 78.9874 217.597 81.254 217.597C83.7874 217.597 100.054 205.33 100.054 203.464C100.054 200.264 94.1874 201.464 88.9874 205.73Z" fill="#1A764B"/>
<path d="M156.587 212.53C152.854 217.197 142.721 236.93 142.721 239.864C142.721 240.797 142.187 241.597 141.387 241.597C140.721 241.597 140.054 240.664 140.054 239.464C140.054 236.264 133.654 223.597 130.721 220.93C128.187 218.664 127.787 218.664 125.921 220.53C124.054 222.397 124.054 223.064 125.921 227.464C126.987 230.13 130.987 235.33 134.721 238.93C140.454 244.797 141.254 246.264 140.454 249.197L139.654 252.797L136.187 248.664C131.387 243.064 124.454 239.597 121.921 241.73C120.854 242.53 120.054 243.997 120.054 244.93C120.054 247.597 127.654 253.33 133.387 255.064C138.187 256.53 138.721 257.064 138.721 261.197V265.597L133.654 262.397C124.721 256.797 116.454 256.797 117.654 262.397C118.321 265.864 124.454 268.53 131.787 268.53L138.054 268.397L138.321 275.064C138.454 278.664 138.321 281.597 137.921 281.597C137.654 281.597 135.121 280.397 132.454 278.93C124.054 274.397 114.587 276.264 116.721 281.864C118.054 285.33 124.054 287.064 131.387 286.264C138.321 285.33 138.321 285.33 139.121 289.33C139.521 291.464 140.321 294.797 140.721 296.664L141.654 300.13L136.587 297.464C127.521 292.93 120.854 294.93 127.521 300.13C129.921 301.997 132.987 302.93 136.721 302.93H142.321L146.054 311.597C148.054 316.397 150.321 320.664 150.987 321.064C151.654 321.464 151.254 319.597 150.054 316.664C146.587 308.664 145.387 305.464 145.387 304.397C145.387 303.73 149.521 303.597 154.721 303.997C162.454 304.53 164.187 304.264 164.854 302.397C166.454 298.264 162.721 295.864 156.187 296.797C152.987 297.197 149.521 298.264 148.587 299.064C145.521 301.597 142.987 299.464 142.054 293.597C141.521 290.53 141.387 287.864 141.654 287.464C142.054 287.197 145.787 287.597 149.921 288.397C156.587 289.597 157.921 289.464 160.187 287.464C163.654 284.264 163.387 281.864 159.254 280.797C156.187 279.997 152.854 280.397 143.787 282.397C140.054 283.197 140.054 283.197 140.054 275.864V268.53L144.321 270.53C153.787 275.33 166.054 273.73 162.721 268.264C161.787 266.797 158.721 266.264 150.721 266.264C141.254 266.264 140.054 265.997 140.054 263.864C140.054 262.53 140.721 260.264 141.387 258.93C142.587 256.797 143.387 256.53 146.187 257.597C151.387 259.597 162.187 259.197 164.054 256.93C168.721 251.33 158.721 248.93 147.387 252.93C144.587 253.997 141.921 254.664 141.787 254.397C141.521 254.264 141.787 252.13 142.187 249.864C142.854 246.664 143.787 245.597 145.921 245.597C151.254 245.597 164.721 241.464 167.121 239.197C168.987 237.197 169.121 236.397 167.787 234.53C166.187 232.397 165.654 232.397 158.721 234.93C154.721 236.397 149.654 238.93 147.521 240.53C144.187 242.93 143.787 242.93 144.454 241.064C144.987 239.73 145.387 238.13 145.387 237.464C145.387 236.664 149.521 231.997 154.721 226.93C163.521 218.264 166.721 212.797 164.721 209.73C163.254 207.197 160.321 208.13 156.587 212.53Z" fill="#1A764B"/>
<path d="M100.054 218.93C99.2541 220.397 98.0541 224.664 97.3874 228.53C96.5874 232.397 94.8541 236.664 93.5208 238.13C91.1208 240.53 90.9874 240.53 89.2541 235.864C88.3208 233.197 87.1208 231.33 86.5874 231.597C86.0541 231.997 85.7874 231.464 85.9208 230.53C85.9208 229.73 85.5208 228.797 84.7208 228.53C81.9208 227.73 82.7208 234.53 86.0541 239.464C88.3208 242.93 89.2541 245.464 88.5874 247.33C87.9208 249.597 88.1874 249.864 89.3874 248.797C90.5874 247.597 92.0541 248.397 95.2541 251.997C98.1874 255.197 100.321 256.397 101.787 255.864C105.121 254.664 102.321 249.33 96.7208 246.13L92.1874 243.597L94.7208 240.264L97.2541 236.93L102.321 241.864C107.387 246.93 113.387 248.664 113.387 245.197C113.387 242.664 109.654 239.464 104.054 237.064L99.3874 235.197L103.121 233.73C105.254 232.93 108.854 232.264 111.387 232.264C116.321 232.264 122.321 228.13 120.854 225.864C119.254 223.33 113.121 224.13 107.121 227.597C103.921 229.33 101.387 230.53 101.387 230.397C101.387 230.13 102.321 227.73 103.521 224.93C106.454 217.73 103.521 212.53 100.054 218.93Z" fill="#1A764B"/>
<path d="M354.721 229.33C354.721 234.797 353.921 235.064 347.254 232.13C340.321 229.064 331.387 229.197 331.387 232.264C331.387 234.797 338.987 237.464 346.454 237.464C352.587 237.597 353.254 238.797 350.587 244.797L349.121 247.997L343.521 245.464C337.121 242.53 328.854 241.997 329.654 244.53C330.454 246.797 335.521 249.197 342.454 250.53L348.054 251.597L345.387 257.064L342.721 262.53L335.654 260.13C328.587 257.73 325.654 258.397 327.121 262.13C327.521 263.197 330.454 264.53 334.054 264.93C339.787 265.864 340.054 265.997 338.321 268.664C336.721 271.064 335.387 271.33 326.454 271.064C316.454 270.797 312.054 272.397 316.187 275.064C318.454 276.53 326.454 276.397 330.054 275.064C333.521 273.73 335.787 276.13 336.321 281.73C336.721 286.664 339.521 287.73 341.921 283.997C342.987 282.264 342.721 280.53 340.987 276.93C338.987 272.797 338.987 271.73 340.587 269.464C342.321 266.93 342.454 267.064 344.054 270.93C345.921 275.33 349.387 276.397 349.387 272.397C349.387 271.064 348.187 268.53 346.854 266.797C344.321 263.597 344.454 263.464 347.387 257.597L350.454 251.73L351.254 255.864C352.454 260.93 355.521 263.997 357.521 261.997C359.387 260.13 358.187 256.264 354.587 252.397C352.454 250.13 351.921 248.397 352.587 244.797C353.787 239.064 354.987 239.064 357.787 244.93C359.921 249.464 363.921 251.33 364.187 247.864C364.587 243.997 363.654 241.997 359.787 238.664C356.187 235.597 355.787 234.53 356.454 230.397C356.854 227.73 356.721 225.597 355.921 225.597C355.254 225.597 354.721 227.33 354.721 229.33Z" fill="#1A764B"/>
<path d="M328.587 279.064C327.254 280.664 321.654 284.93 316.454 288.53C311.121 291.997 305.787 296.53 304.587 298.264C300.587 304.53 305.387 307.997 311.787 303.464C313.387 302.397 317.787 297.064 321.521 291.864L328.321 282.264L327.654 287.864C326.987 293.864 328.187 297.197 330.587 295.597C331.521 295.064 332.054 291.73 331.921 287.064C331.787 282.797 332.054 278.664 332.587 277.864C334.187 275.197 331.254 276.13 328.587 279.064Z" fill="#1A764B"/>
<path d="M104.51 390.703L104.56 390.803H98.2096L85.3596 359.603H91.7096L103.51 388.253L115.31 359.603H117.36L104.51 390.703ZM120.677 390.803V359.603H126.377V390.803H120.677ZM151.294 381.403L157.594 390.803H151.844L145.794 381.703H138.144V390.803H132.444V359.603H148.694C150.228 359.603 151.661 359.903 152.994 360.503C154.328 361.069 155.494 361.853 156.494 362.853C157.494 363.853 158.278 365.019 158.844 366.353C159.444 367.686 159.744 369.119 159.744 370.653C159.744 371.953 159.528 373.203 159.094 374.403C158.661 375.569 158.061 376.636 157.294 377.603C156.561 378.536 155.678 379.336 154.644 380.003C153.611 380.636 152.478 381.103 151.244 381.403H151.294ZM146.294 379.653C149.094 379.653 151.078 378.869 152.244 377.303C153.444 375.703 154.044 373.486 154.044 370.653C154.044 367.819 153.444 365.619 152.244 364.053C151.078 362.453 149.094 361.653 146.294 361.653H138.144V379.653H146.294ZM193.181 375.703V390.853H187.431V388.803C186.165 389.603 184.815 390.219 183.381 390.653C181.948 391.086 180.431 391.303 178.831 391.303C176.631 391.303 174.548 390.886 172.581 390.053C170.648 389.186 168.948 388.036 167.481 386.603C166.048 385.136 164.898 383.436 164.031 381.503C163.198 379.536 162.781 377.453 162.781 375.253C162.781 373.019 163.198 370.936 164.031 369.003C164.898 367.036 166.048 365.336 167.481 363.903C168.948 362.436 170.648 361.286 172.581 360.453C174.548 359.619 176.631 359.203 178.831 359.203C180.365 359.203 181.831 359.419 183.231 359.853C184.665 360.253 185.998 360.836 187.231 361.603C188.465 362.336 189.565 363.219 190.531 364.253C191.531 365.286 192.365 366.436 193.031 367.703H185.931C184.165 365.969 182.465 364.586 180.831 363.553C179.198 362.519 177.548 362.003 175.881 362.003C174.748 362.003 173.615 362.269 172.481 362.803C171.348 363.336 170.198 364.203 169.031 365.403C167.531 366.903 166.548 368.369 166.081 369.803C165.648 371.236 165.598 372.669 165.931 374.103C166.265 375.503 166.931 376.919 167.931 378.353C168.965 379.786 170.231 381.253 171.731 382.753C173.531 384.553 175.231 385.969 176.831 387.003C178.465 388.003 180.098 388.503 181.731 388.503C182.665 388.503 183.598 388.319 184.531 387.953C185.498 387.586 186.465 386.986 187.431 386.153V377.153H182.181V375.703H193.181ZM212.962 359.203C215.196 359.203 217.279 359.619 219.212 360.453C221.179 361.286 222.879 362.436 224.312 363.903C225.779 365.336 226.929 367.036 227.762 369.003C228.596 370.936 229.012 373.019 229.012 375.253C229.012 377.453 228.596 379.536 227.762 381.503C226.929 383.436 225.779 385.136 224.312 386.603C222.879 388.036 221.179 389.186 219.212 390.053C217.279 390.886 215.196 391.303 212.962 391.303C210.762 391.303 208.679 390.886 206.712 390.053C204.779 389.186 203.079 388.036 201.612 386.603C200.179 385.136 199.029 383.436 198.162 381.503C197.329 379.536 196.912 377.453 196.912 375.253C196.912 373.019 197.329 370.936 198.162 369.003C199.029 367.036 200.179 365.336 201.612 363.903C203.079 362.436 204.779 361.286 206.712 360.453C208.679 359.619 210.762 359.203 212.962 359.203ZM222.862 385.153C224.362 383.653 225.346 382.203 225.812 380.803C226.279 379.369 226.346 377.953 226.012 376.553C225.712 375.153 225.046 373.753 224.012 372.353C223.012 370.919 221.762 369.453 220.262 367.953C218.462 366.153 216.712 364.719 215.012 363.653C213.312 362.553 211.612 362.003 209.912 362.003C208.779 362.003 207.646 362.269 206.512 362.803C205.379 363.336 204.229 364.186 203.062 365.353C201.562 366.853 200.579 368.319 200.112 369.753C199.679 371.186 199.629 372.619 199.962 374.053C200.329 375.486 201.029 376.919 202.062 378.353C203.096 379.786 204.362 381.253 205.862 382.753C207.662 384.553 209.379 385.986 211.012 387.053C212.646 388.086 214.296 388.603 215.962 388.603C217.096 388.603 218.229 388.336 219.362 387.803C220.496 387.236 221.662 386.353 222.862 385.153ZM269.293 388.753V390.803H244.943V359.603H250.643V388.753H269.293ZM290.786 379.603H276.386L271.786 390.803H269.736L282.586 359.603H288.886L301.736 390.803H295.386L290.786 379.603ZM289.886 377.453L283.586 362.153L277.286 377.453H289.886ZM331.951 382.803C331.951 383.869 331.751 384.869 331.351 385.803C330.984 386.736 330.451 387.569 329.751 388.303C329.084 389.003 328.301 389.569 327.401 390.003C326.501 390.436 325.517 390.686 324.451 390.753V390.803H305.051V359.603H322.101C323.201 359.603 324.234 359.819 325.201 360.253C326.201 360.653 327.051 361.219 327.751 361.953C328.484 362.686 329.051 363.536 329.451 364.503C329.884 365.469 330.101 366.503 330.101 367.603C330.101 369.269 329.651 370.753 328.751 372.053C327.884 373.353 326.751 374.303 325.351 374.903C326.284 375.069 327.151 375.403 327.951 375.903C328.751 376.369 329.451 376.953 330.051 377.653C330.651 378.353 331.117 379.136 331.451 380.003C331.784 380.869 331.951 381.803 331.951 382.803ZM310.751 374.153H318.751C320.751 374.153 322.184 373.569 323.051 372.403C323.951 371.203 324.401 369.603 324.401 367.603C324.401 365.603 323.951 364.136 323.051 363.203C322.184 362.236 320.751 361.753 318.751 361.753H310.751V374.153ZM320.651 388.653C322.617 388.653 324.034 388.186 324.901 387.253C325.767 386.286 326.201 384.803 326.201 382.803C326.201 380.803 325.767 379.219 324.901 378.053C324.034 376.853 322.601 376.253 320.601 376.253H310.751V388.653H320.651ZM342.796 365.903C342.796 367.036 343.246 368.003 344.146 368.803C345.079 369.603 346.246 370.336 347.646 371.003C349.046 371.669 350.546 372.336 352.146 373.003C353.746 373.669 355.246 374.436 356.646 375.303C358.046 376.169 359.196 377.203 360.096 378.403C361.029 379.603 361.496 381.086 361.496 382.853C361.496 384.186 361.146 385.369 360.446 386.403C359.779 387.436 358.846 388.319 357.646 389.053C356.479 389.786 355.096 390.353 353.496 390.753C351.929 391.119 350.263 391.303 348.496 391.303C346.596 391.303 344.796 391.019 343.096 390.453C341.396 389.853 339.896 389.186 338.596 388.453C337.063 387.653 335.629 386.719 334.296 385.653L336.446 383.303C337.279 384.403 338.279 385.386 339.446 386.253C340.413 387.019 341.613 387.719 343.046 388.353C344.479 388.953 346.113 389.253 347.946 389.253C350.979 389.253 353.113 388.903 354.346 388.203C355.579 387.469 356.196 386.453 356.196 385.153C356.196 384.153 355.729 383.253 354.796 382.453C353.863 381.619 352.696 380.836 351.296 380.103C349.929 379.336 348.429 378.553 346.796 377.753C345.163 376.953 343.646 376.069 342.246 375.103C340.879 374.136 339.729 373.036 338.796 371.803C337.863 370.536 337.396 369.069 337.396 367.403C337.396 366.403 337.613 365.419 338.046 364.453C338.479 363.486 339.129 362.636 339.996 361.903C340.896 361.136 342.013 360.536 343.346 360.103C344.713 359.636 346.329 359.403 348.196 359.403C350.796 359.403 353.129 359.569 355.196 359.903C357.296 360.236 359.146 360.636 360.746 361.103L359.646 364.003C358.646 363.336 357.363 362.736 355.796 362.203C354.229 361.669 352.329 361.403 350.096 361.403C347.863 361.403 346.079 361.753 344.746 362.453C343.446 363.153 342.796 364.303 342.796 365.903Z" fill="#1A764B"/>
</svg>
